<?xml version="1.0" standalone="no"?>
<!DOCTYPE svg PUBLIC "-//W3C//DTD SVG 20010904//EN"
 "http://www.w3.org/TR/2001/REC-SVG-20010904/DTD/svg10.dtd">
<svg version="1.0" xmlns="http://www.w3.org/2000/svg"
 width="874.000000pt" height="255.000000pt" viewBox="0 0 874.000000 255.000000"
 preserveAspectRatio="xMidYMid meet">

<g transform="translate(0.000000,255.000000) scale(0.100000,-0.100000)"
fill="#000000" stroke="none">
<path d="M1045 2540 c-164 -29 -372 -115 -512 -212 -104 -71 -256 -218 -325
-314 -65 -92 -143 -232 -181 -327 l-27 -67 0 -480 0 -479 34 -58 c172 -291
511 -440 955 -420 341 16 619 135 847 361 127 127 231 289 300 471 25 68 30
62 38 -45 26 -349 236 -617 571 -729 250 -83 584 -79 865 11 100 32 264 110
340 161 253 171 445 427 545 726 69 207 94 405 76 588 -14 141 -49 261 -109
377 -37 74 -64 109 -142 186 -80 81 -110 104 -195 147 -193 98 -292 117 -589
110 -218 -4 -223 -5 -351 -41 -560 -158 -942 -614 -1005 -1201 -6 -60 -14
-129 -16 -152 l-5 -43 -350 0 -350 0 -18 -42 c-49 -115 -70 -148 -127 -206
-72 -71 -137 -105 -237 -123 -188 -32 -353 48 -404 195 -27 76 -24 316 5 452
94 437 307 659 591 615 177 -28 271 -133 271 -303 l0 -58 356 0 357 0 -5 123
c-7 154 -28 248 -83 362 -97 202 -271 331 -535 395 -83 21 -124 24 -315 26
-121 2 -242 -1 -270 -6z m2539 -545 c216 -57 303 -325 220 -685 -74 -326 -237
-527 -462 -571 -171 -33 -319 33 -384 172 -116 245 -16 743 193 954 119 122
280 170 433 130z"/>
<path d="M4786 2483 c-3 -10 -91 -506 -196 -1103 -104 -597 -193 -1097 -196
-1113 l-6 -27 371 0 c204 0 371 2 371 5 0 3 27 157 60 343 33 187 60 341 60
344 0 3 127 8 283 11 353 7 487 29 661 106 198 89 371 266 442 451 9 25 20 48
24 53 3 4 52 -105 108 -242 l102 -250 -70 -396 c-38 -217 -70 -402 -70 -410 0
-13 49 -15 368 -15 l367 0 73 417 73 417 38 51 c21 27 266 347 545 710 l507
660 -403 3 c-313 2 -405 -1 -414 -10 -6 -7 -123 -176 -258 -375 -136 -200
-251 -365 -256 -368 -4 -3 -65 166 -135 375 l-127 380 -414 0 c-407 0 -415 0
-404 -19 19 -36 11 -39 -44 -25 -152 40 -233 44 -853 44 -564 0 -602 -1 -607
-17z m1086 -542 c60 -23 113 -73 124 -117 12 -45 -3 -138 -29 -190 -32 -62
-78 -107 -142 -136 -46 -21 -66 -23 -262 -26 -176 -3 -213 -1 -213 10 0 8 18
117 40 242 22 125 40 232 40 238 0 6 65 9 193 6 170 -4 199 -7 249 -27z"/>
</g>
</svg>
